<mxfile host="app.diagrams.net" modified="2021-05-26T11:15:19.782Z" agent="5.0 (Windows NT 10.0; Win64; x64) AppleWebKit/537.36 (KHTML, like Gecko) Chrome/90.0.4430.212 Safari/537.36" etag="A2Q8bH2WH6GkReTFYyHn" version="14.7.1" type="github">
  <diagram id="DMizLd6jPB5jcuzPNhlE" name="Page-1">
    <mxGraphModel dx="716" dy="426" grid="1" gridSize="10" guides="1" tooltips="1" connect="1" arrows="1" fold="1" page="1" pageScale="1" pageWidth="850" pageHeight="1100" math="0" shadow="0">
      <root>
        <mxCell id="0" />
        <mxCell id="1" parent="0" />
        <mxCell id="_9rBPJklPrJXGRunSFTt-1" value="" style="rounded=0;whiteSpace=wrap;html=1;fontFamily=Noto Serif SC;fontSource=https%3A%2F%2Ffonts.googleapis.com%2Fcss%3Ffamily%3DNoto%2BSerif%2BSC;" parent="1" vertex="1">
          <mxGeometry x="160" y="200" width="510" height="60" as="geometry" />
        </mxCell>
        <mxCell id="_9rBPJklPrJXGRunSFTt-2" value="" style="rounded=0;whiteSpace=wrap;html=1;fontFamily=Noto Serif SC;fontSource=https%3A%2F%2Ffonts.googleapis.com%2Fcss%3Ffamily%3DNoto%2BSerif%2BSC;" parent="1" vertex="1">
          <mxGeometry x="160" y="260" width="510" height="220" as="geometry" />
        </mxCell>
        <mxCell id="_9rBPJklPrJXGRunSFTt-3" value="" style="rounded=0;whiteSpace=wrap;html=1;align=left;spacingTop=10;fontFamily=Noto Serif SC;fontSource=https%3A%2F%2Ffonts.googleapis.com%2Fcss%3Ffamily%3DNoto%2BSerif%2BSC;" parent="1" vertex="1">
          <mxGeometry x="160" y="480" width="510" height="60" as="geometry" />
        </mxCell>
        <mxCell id="_9rBPJklPrJXGRunSFTt-4" value="前端UI" style="text;html=1;strokeColor=none;fillColor=none;align=center;verticalAlign=middle;whiteSpace=wrap;rounded=0;fontFamily=Noto Serif SC;fontSource=https%3A%2F%2Ffonts.googleapis.com%2Fcss%3Ffamily%3DNoto%2BSerif%2BSC;" parent="1" vertex="1">
          <mxGeometry x="162" y="220" width="60" height="20" as="geometry" />
        </mxCell>
        <mxCell id="_9rBPJklPrJXGRunSFTt-5" value="服务层" style="text;html=1;strokeColor=none;fillColor=none;align=center;verticalAlign=middle;whiteSpace=wrap;rounded=0;fontFamily=Noto Serif SC;fontSource=https%3A%2F%2Ffonts.googleapis.com%2Fcss%3Ffamily%3DNoto%2BSerif%2BSC;" parent="1" vertex="1">
          <mxGeometry x="170" y="350" width="40" height="20" as="geometry" />
        </mxCell>
        <mxCell id="_9rBPJklPrJXGRunSFTt-6" value="Vue.js" style="rounded=0;whiteSpace=wrap;html=1;fontFamily=Noto Serif SC;fontSource=https%3A%2F%2Ffonts.googleapis.com%2Fcss%3Ffamily%3DNoto%2BSerif%2BSC;" parent="1" vertex="1">
          <mxGeometry x="230" y="215" width="60" height="30" as="geometry" />
        </mxCell>
        <mxCell id="_9rBPJklPrJXGRunSFTt-7" value="HTTP接口" style="rounded=0;whiteSpace=wrap;html=1;fontFamily=Noto Serif SC;fontSource=https%3A%2F%2Ffonts.googleapis.com%2Fcss%3Ffamily%3DNoto%2BSerif%2BSC;align=left;" parent="1" vertex="1">
          <mxGeometry x="230" y="270" width="220" height="40" as="geometry" />
        </mxCell>
        <mxCell id="_9rBPJklPrJXGRunSFTt-9" value="持久层接口" style="rounded=0;whiteSpace=wrap;html=1;fontFamily=Noto Serif SC;fontSource=https%3A%2F%2Ffonts.googleapis.com%2Fcss%3Ffamily%3DNoto%2BSerif%2BSC;align=left;" parent="1" vertex="1">
          <mxGeometry x="230" y="430" width="220" height="40" as="geometry" />
        </mxCell>
        <mxCell id="_9rBPJklPrJXGRunSFTt-10" value="比特币节点" style="rounded=0;whiteSpace=wrap;html=1;fontFamily=Noto Serif SC;fontSource=https%3A%2F%2Ffonts.googleapis.com%2Fcss%3Ffamily%3DNoto%2BSerif%2BSC;verticalAlign=top;" parent="1" vertex="1">
          <mxGeometry x="480" y="270" width="80" height="60" as="geometry" />
        </mxCell>
        <mxCell id="_9rBPJklPrJXGRunSFTt-11" value="合约信息获取" style="rounded=0;whiteSpace=wrap;html=1;fontFamily=Noto Serif SC;fontSource=https%3A%2F%2Ffonts.googleapis.com%2Fcss%3Ffamily%3DNoto%2BSerif%2BSC;verticalAlign=top;" parent="1" vertex="1">
          <mxGeometry x="570" y="270" width="80" height="150" as="geometry" />
        </mxCell>
        <mxCell id="_9rBPJklPrJXGRunSFTt-12" value="语义分析模型" style="rounded=0;whiteSpace=wrap;html=1;fontFamily=Noto Serif SC;fontSource=https%3A%2F%2Ffonts.googleapis.com%2Fcss%3Ffamily%3DNoto%2BSerif%2BSC;verticalAlign=top;" parent="1" vertex="1">
          <mxGeometry x="480" y="340" width="80" height="80" as="geometry" />
        </mxCell>
        <mxCell id="_9rBPJklPrJXGRunSFTt-13" value="数据IO" style="rounded=0;whiteSpace=wrap;html=1;fontFamily=Noto Serif SC;fontSource=https%3A%2F%2Ffonts.googleapis.com%2Fcss%3Ffamily%3DNoto%2BSerif%2BSC;" parent="1" vertex="1">
          <mxGeometry x="480" y="440" width="170" height="30" as="geometry" />
        </mxCell>
        <mxCell id="_9rBPJklPrJXGRunSFTt-14" value="智能合约分析服务" style="rounded=0;whiteSpace=wrap;html=1;fontFamily=Noto Serif SC;fontSource=https%3A%2F%2Ffonts.googleapis.com%2Fcss%3Ffamily%3DNoto%2BSerif%2BSC;" parent="1" vertex="1">
          <mxGeometry x="310" y="320" width="60" height="100" as="geometry" />
        </mxCell>
        <mxCell id="_9rBPJklPrJXGRunSFTt-15" value="比特币信息分析服务" style="rounded=0;whiteSpace=wrap;html=1;fontFamily=Noto Serif SC;fontSource=https%3A%2F%2Ffonts.googleapis.com%2Fcss%3Ffamily%3DNoto%2BSerif%2BSC;" parent="1" vertex="1">
          <mxGeometry x="390" y="320" width="60" height="100" as="geometry" />
        </mxCell>
        <mxCell id="_9rBPJklPrJXGRunSFTt-16" value="用户信息服务" style="rounded=0;whiteSpace=wrap;html=1;fontFamily=Noto Serif SC;fontSource=https%3A%2F%2Ffonts.googleapis.com%2Fcss%3Ffamily%3DNoto%2BSerif%2BSC;" parent="1" vertex="1">
          <mxGeometry x="230" y="320" width="60" height="100" as="geometry" />
        </mxCell>
        <mxCell id="_9rBPJklPrJXGRunSFTt-17" value="数据库" style="text;html=1;strokeColor=none;fillColor=none;align=center;verticalAlign=middle;whiteSpace=wrap;rounded=0;fontFamily=Noto Serif SC;fontSource=https%3A%2F%2Ffonts.googleapis.com%2Fcss%3Ffamily%3DNoto%2BSerif%2BSC;" parent="1" vertex="1">
          <mxGeometry x="170" y="500" width="40" height="20" as="geometry" />
        </mxCell>
        <mxCell id="0q1ydX6Af9f_iXxnlINt-1" value="MySQL" style="strokeWidth=2;html=1;shape=mxgraph.flowchart.database;whiteSpace=wrap;fontFamily=Noto Serif SC;fontSource=https%3A%2F%2Ffonts.googleapis.com%2Fcss%3Ffamily%3DNoto%2BSerif%2BSC;" parent="1" vertex="1">
          <mxGeometry x="395" y="485" width="50" height="50" as="geometry" />
        </mxCell>
        <mxCell id="0q1ydX6Af9f_iXxnlINt-2" value="Javascript" style="rounded=0;whiteSpace=wrap;html=1;fontFamily=Noto Serif SC;fontSource=https%3A%2F%2Ffonts.googleapis.com%2Fcss%3Ffamily%3DNoto%2BSerif%2BSC;" parent="1" vertex="1">
          <mxGeometry x="410" y="215" width="60" height="30" as="geometry" />
        </mxCell>
        <mxCell id="0q1ydX6Af9f_iXxnlINt-3" value="Echarts" style="rounded=0;whiteSpace=wrap;html=1;fontFamily=Noto Serif SC;fontSource=https%3A%2F%2Ffonts.googleapis.com%2Fcss%3Ffamily%3DNoto%2BSerif%2BSC;" parent="1" vertex="1">
          <mxGeometry x="320" y="215" width="60" height="30" as="geometry" />
        </mxCell>
        <mxCell id="0q1ydX6Af9f_iXxnlINt-4" value="Html" style="rounded=0;whiteSpace=wrap;html=1;fontFamily=Noto Serif SC;fontSource=https%3A%2F%2Ffonts.googleapis.com%2Fcss%3Ffamily%3DNoto%2BSerif%2BSC;" parent="1" vertex="1">
          <mxGeometry x="500" y="215" width="60" height="30" as="geometry" />
        </mxCell>
        <mxCell id="0q1ydX6Af9f_iXxnlINt-5" value="Css" style="rounded=0;whiteSpace=wrap;html=1;fontFamily=Noto Serif SC;fontSource=https%3A%2F%2Ffonts.googleapis.com%2Fcss%3Ffamily%3DNoto%2BSerif%2BSC;" parent="1" vertex="1">
          <mxGeometry x="590" y="215" width="60" height="30" as="geometry" />
        </mxCell>
        <mxCell id="0q1ydX6Af9f_iXxnlINt-6" value="Get" style="rounded=0;whiteSpace=wrap;html=1;fontFamily=Noto Serif SC;fontSource=https%3A%2F%2Ffonts.googleapis.com%2Fcss%3Ffamily%3DNoto%2BSerif%2BSC;" parent="1" vertex="1">
          <mxGeometry x="317.5" y="280" width="45" height="20" as="geometry" />
        </mxCell>
        <mxCell id="0q1ydX6Af9f_iXxnlINt-7" value="Post" style="rounded=0;whiteSpace=wrap;html=1;fontFamily=Noto Serif SC;fontSource=https%3A%2F%2Ffonts.googleapis.com%2Fcss%3Ffamily%3DNoto%2BSerif%2BSC;" parent="1" vertex="1">
          <mxGeometry x="395" y="280" width="45" height="20" as="geometry" />
        </mxCell>
        <mxCell id="0q1ydX6Af9f_iXxnlINt-8" value="Bcoin" style="rounded=0;whiteSpace=wrap;html=1;align=center;verticalAlign=middle;fontFamily=Noto Serif SC;fontSource=https%3A%2F%2Ffonts.googleapis.com%2Fcss%3Ffamily%3DNoto%2BSerif%2BSC;" parent="1" vertex="1">
          <mxGeometry x="490" y="300" width="60" height="20" as="geometry" />
        </mxCell>
        <mxCell id="0q1ydX6Af9f_iXxnlINt-9" value="LSTM" style="rounded=0;whiteSpace=wrap;html=1;align=center;verticalAlign=middle;fontFamily=Noto Serif SC;fontSource=https%3A%2F%2Ffonts.googleapis.com%2Fcss%3Ffamily%3DNoto%2BSerif%2BSC;" parent="1" vertex="1">
          <mxGeometry x="490" y="363.75" width="60" height="20" as="geometry" />
        </mxCell>
        <mxCell id="0q1ydX6Af9f_iXxnlINt-10" value="Word2Vec" style="rounded=0;whiteSpace=wrap;html=1;align=center;verticalAlign=middle;fontFamily=Noto Serif SC;fontSource=https%3A%2F%2Ffonts.googleapis.com%2Fcss%3Ffamily%3DNoto%2BSerif%2BSC;" parent="1" vertex="1">
          <mxGeometry x="490" y="390" width="60" height="20" as="geometry" />
        </mxCell>
        <mxCell id="0q1ydX6Af9f_iXxnlINt-11" value="Scrapy" style="rounded=0;whiteSpace=wrap;html=1;align=center;verticalAlign=middle;fontFamily=Noto Serif SC;fontSource=https%3A%2F%2Ffonts.googleapis.com%2Fcss%3Ffamily%3DNoto%2BSerif%2BSC;" parent="1" vertex="1">
          <mxGeometry x="580" y="310" width="60" height="20" as="geometry" />
        </mxCell>
        <mxCell id="0q1ydX6Af9f_iXxnlINt-12" value="&lt;span style=&quot;color: rgb(51, 51, 51); font-size: 13px; background-color: rgb(255, 255, 255);&quot;&gt;lxml&amp;nbsp;&lt;/span&gt;" style="rounded=0;whiteSpace=wrap;html=1;align=center;verticalAlign=middle;fontFamily=Noto Serif SC;fontSource=https%3A%2F%2Ffonts.googleapis.com%2Fcss%3Ffamily%3DNoto%2BSerif%2BSC;" parent="1" vertex="1">
          <mxGeometry x="580" y="350" width="60" height="20" as="geometry" />
        </mxCell>
        <mxCell id="0q1ydX6Af9f_iXxnlINt-14" value="PyQuery" style="rounded=0;whiteSpace=wrap;html=1;align=center;verticalAlign=middle;fontFamily=Noto Serif SC;fontSource=https%3A%2F%2Ffonts.googleapis.com%2Fcss%3Ffamily%3DNoto%2BSerif%2BSC;" parent="1" vertex="1">
          <mxGeometry x="580" y="390" width="60" height="20" as="geometry" />
        </mxCell>
        <mxCell id="0q1ydX6Af9f_iXxnlINt-16" value="PyMySQL" style="rounded=0;whiteSpace=wrap;html=1;fontFamily=Noto Serif SC;fontSource=https%3A%2F%2Ffonts.googleapis.com%2Fcss%3Ffamily%3DNoto%2BSerif%2BSC;" parent="1" vertex="1">
          <mxGeometry x="330" y="437.5" width="95" height="25" as="geometry" />
        </mxCell>
      </root>
    </mxGraphModel>
  </diagram>
</mxfile>
